<mxfile host="65bd71144e">
    <diagram id="DYnAscv9hxpTZkDShg4g" name="Current Version Design">
        <mxGraphModel dx="1321" dy="598" grid="1" gridSize="10" guides="1" tooltips="1" connect="1" arrows="1" fold="1" page="1" pageScale="1" pageWidth="827" pageHeight="1169" math="0" shadow="0">
            <root>
                <mxCell id="0"/>
                <mxCell id="1" parent="0"/>
                <mxCell id="22" value="" style="rounded=0;whiteSpace=wrap;html=1;dashed=1;strokeColor=#FF9933;align=right;" parent="1" vertex="1">
                    <mxGeometry x="170" y="220" width="520" height="350" as="geometry"/>
                </mxCell>
                <mxCell id="2" value="Cloud&lt;br&gt;HTTP&lt;br&gt;Load Balancer" style="rounded=1;whiteSpace=wrap;html=1;" parent="1" vertex="1">
                    <mxGeometry x="80" y="240" width="70" height="280" as="geometry"/>
                </mxCell>
                <mxCell id="3" value="timer_api_2" style="rounded=1;whiteSpace=wrap;html=1;" parent="1" vertex="1">
                    <mxGeometry x="210" y="350" width="120" height="60" as="geometry"/>
                </mxCell>
                <mxCell id="4" value="timer_api_1" style="rounded=1;whiteSpace=wrap;html=1;" parent="1" vertex="1">
                    <mxGeometry x="210" y="240" width="120" height="60" as="geometry"/>
                </mxCell>
                <mxCell id="5" value="timer_api_n" style="rounded=1;whiteSpace=wrap;html=1;" parent="1" vertex="1">
                    <mxGeometry x="210" y="460" width="120" height="60" as="geometry"/>
                </mxCell>
                <mxCell id="21" style="edgeStyle=none;html=1;exitX=1;exitY=0.5;exitDx=0;exitDy=0;exitPerimeter=0;entryX=0;entryY=0.5;entryDx=0;entryDy=0;startArrow=classic;startFill=1;" parent="1" source="6" target="7" edge="1">
                    <mxGeometry relative="1" as="geometry"/>
                </mxCell>
                <mxCell id="6" value="timer_db&lt;br&gt;(MySQL)" style="shape=cylinder3;whiteSpace=wrap;html=1;boundedLbl=1;backgroundOutline=1;size=15;" parent="1" vertex="1">
                    <mxGeometry x="410" y="330" width="80" height="100" as="geometry"/>
                </mxCell>
                <mxCell id="7" value="timer_controller_2" style="rounded=1;whiteSpace=wrap;html=1;" parent="1" vertex="1">
                    <mxGeometry x="550" y="310" width="120" height="60" as="geometry"/>
                </mxCell>
                <mxCell id="8" value="timer_controller_1" style="rounded=1;whiteSpace=wrap;html=1;" parent="1" vertex="1">
                    <mxGeometry x="550" y="240" width="120" height="60" as="geometry"/>
                </mxCell>
                <mxCell id="9" value="timer_controller_k" style="rounded=1;whiteSpace=wrap;html=1;" parent="1" vertex="1">
                    <mxGeometry x="550" y="382" width="120" height="60" as="geometry"/>
                </mxCell>
                <mxCell id="11" value="timer_controller_k" style="rounded=1;whiteSpace=wrap;html=1;" parent="1" vertex="1">
                    <mxGeometry x="550" y="458" width="120" height="60" as="geometry"/>
                </mxCell>
                <mxCell id="12" value="" style="endArrow=classic;startArrow=classic;html=1;exitX=1.016;exitY=0.606;exitDx=0;exitDy=0;exitPerimeter=0;entryX=0.001;entryY=0.571;entryDx=0;entryDy=0;entryPerimeter=0;" parent="1" source="6" target="9" edge="1">
                    <mxGeometry width="50" height="50" relative="1" as="geometry">
                        <mxPoint x="510" y="450" as="sourcePoint"/>
                        <mxPoint x="560" y="400" as="targetPoint"/>
                    </mxGeometry>
                </mxCell>
                <mxCell id="13" value="" style="endArrow=classic;startArrow=classic;html=1;exitX=1;exitY=0;exitDx=0;exitDy=67.5;exitPerimeter=0;entryX=0;entryY=0.5;entryDx=0;entryDy=0;" parent="1" source="6" target="11" edge="1">
                    <mxGeometry width="50" height="50" relative="1" as="geometry">
                        <mxPoint x="510" y="450" as="sourcePoint"/>
                        <mxPoint x="560" y="400" as="targetPoint"/>
                    </mxGeometry>
                </mxCell>
                <mxCell id="14" value="" style="endArrow=classic;startArrow=classic;html=1;entryX=0;entryY=0.5;entryDx=0;entryDy=0;exitX=1;exitY=0.5;exitDx=0;exitDy=0;" parent="1" source="2" target="4" edge="1">
                    <mxGeometry width="50" height="50" relative="1" as="geometry">
                        <mxPoint x="150" y="430" as="sourcePoint"/>
                        <mxPoint x="220.71067811865476" y="380" as="targetPoint"/>
                    </mxGeometry>
                </mxCell>
                <mxCell id="15" value="" style="endArrow=classic;startArrow=classic;html=1;entryX=0;entryY=0.5;entryDx=0;entryDy=0;exitX=1;exitY=0.5;exitDx=0;exitDy=0;" parent="1" source="2" target="3" edge="1">
                    <mxGeometry width="50" height="50" relative="1" as="geometry">
                        <mxPoint x="160" y="390" as="sourcePoint"/>
                        <mxPoint x="220" y="280" as="targetPoint"/>
                    </mxGeometry>
                </mxCell>
                <mxCell id="16" value="" style="endArrow=classic;startArrow=classic;html=1;entryX=0;entryY=0.5;entryDx=0;entryDy=0;exitX=1;exitY=0.5;exitDx=0;exitDy=0;" parent="1" source="2" target="5" edge="1">
                    <mxGeometry width="50" height="50" relative="1" as="geometry">
                        <mxPoint x="160" y="390" as="sourcePoint"/>
                        <mxPoint x="220" y="390" as="targetPoint"/>
                    </mxGeometry>
                </mxCell>
                <mxCell id="17" value="" style="endArrow=classic;startArrow=classic;html=1;entryX=0;entryY=0.5;entryDx=0;entryDy=0;exitX=1;exitY=0.5;exitDx=0;exitDy=0;entryPerimeter=0;" parent="1" source="5" target="6" edge="1">
                    <mxGeometry width="50" height="50" relative="1" as="geometry">
                        <mxPoint x="384" y="408" as="sourcePoint"/>
                        <mxPoint x="444" y="518" as="targetPoint"/>
                    </mxGeometry>
                </mxCell>
                <mxCell id="18" value="" style="endArrow=classic;startArrow=classic;html=1;entryX=-0.012;entryY=0.463;entryDx=0;entryDy=0;exitX=1;exitY=0.5;exitDx=0;exitDy=0;entryPerimeter=0;" parent="1" source="4" target="6" edge="1">
                    <mxGeometry width="50" height="50" relative="1" as="geometry">
                        <mxPoint x="340" y="500" as="sourcePoint"/>
                        <mxPoint x="420" y="407.5" as="targetPoint"/>
                    </mxGeometry>
                </mxCell>
                <mxCell id="19" value="" style="endArrow=classic;startArrow=classic;html=1;entryX=0;entryY=0.5;entryDx=0;entryDy=0;exitX=1;exitY=0.5;exitDx=0;exitDy=0;entryPerimeter=0;" parent="1" source="3" target="6" edge="1">
                    <mxGeometry width="50" height="50" relative="1" as="geometry">
                        <mxPoint x="340" y="500" as="sourcePoint"/>
                        <mxPoint x="420" y="407.5" as="targetPoint"/>
                    </mxGeometry>
                </mxCell>
                <mxCell id="20" value="" style="endArrow=classic;startArrow=classic;html=1;entryX=0;entryY=0.5;entryDx=0;entryDy=0;exitX=1;exitY=0.4;exitDx=0;exitDy=0;exitPerimeter=0;" parent="1" source="6" target="8" edge="1">
                    <mxGeometry width="50" height="50" relative="1" as="geometry">
                        <mxPoint x="350" y="510" as="sourcePoint"/>
                        <mxPoint x="430" y="417.5" as="targetPoint"/>
                    </mxGeometry>
                </mxCell>
                <mxCell id="23" value="Timer System Bounderies" style="text;html=1;strokeColor=none;fillColor=none;align=center;verticalAlign=middle;whiteSpace=wrap;rounded=0;dashed=1;" parent="1" vertex="1">
                    <mxGeometry x="375" y="540" width="150" height="30" as="geometry"/>
                </mxCell>
            </root>
        </mxGraphModel>
    </diagram>
    <diagram id="ogXFltSYrHMgtjTxt0ea" name="Horizontal Scaling">
        <mxGraphModel dx="491" dy="704" grid="1" gridSize="10" guides="1" tooltips="1" connect="1" arrows="1" fold="1" page="1" pageScale="1" pageWidth="827" pageHeight="1169" math="0" shadow="0">
            <root>
                <mxCell id="0"/>
                <mxCell id="1" parent="0"/>
                <mxCell id="ZxmdzEVxeu-JPoR6dsE8-22" value="" style="group" vertex="1" connectable="0" parent="1">
                    <mxGeometry x="200" y="60" width="400" height="240" as="geometry"/>
                </mxCell>
                <mxCell id="ZxmdzEVxeu-JPoR6dsE8-1" value="" style="rounded=0;whiteSpace=wrap;html=1;dashed=1;strokeColor=#FF9933;align=right;" vertex="1" parent="ZxmdzEVxeu-JPoR6dsE8-22">
                    <mxGeometry width="400" height="240" as="geometry"/>
                </mxCell>
                <mxCell id="ZxmdzEVxeu-JPoR6dsE8-3" value="timer_api_2" style="rounded=1;whiteSpace=wrap;html=1;" vertex="1" parent="ZxmdzEVxeu-JPoR6dsE8-22">
                    <mxGeometry x="30.76923076923077" y="89.14285714285714" width="92.3076923076923" height="41.142857142857146" as="geometry"/>
                </mxCell>
                <mxCell id="ZxmdzEVxeu-JPoR6dsE8-4" value="timer_api_1" style="rounded=1;whiteSpace=wrap;html=1;" vertex="1" parent="ZxmdzEVxeu-JPoR6dsE8-22">
                    <mxGeometry x="30.76923076923077" y="13.714285714285715" width="92.3076923076923" height="41.142857142857146" as="geometry"/>
                </mxCell>
                <mxCell id="ZxmdzEVxeu-JPoR6dsE8-5" value="timer_api_n" style="rounded=1;whiteSpace=wrap;html=1;" vertex="1" parent="ZxmdzEVxeu-JPoR6dsE8-22">
                    <mxGeometry x="30.76923076923077" y="164.57142857142858" width="92.3076923076923" height="41.142857142857146" as="geometry"/>
                </mxCell>
                <mxCell id="ZxmdzEVxeu-JPoR6dsE8-7" value="timer_db&lt;br&gt;(MySQL)" style="shape=cylinder3;whiteSpace=wrap;html=1;boundedLbl=1;backgroundOutline=1;size=15;" vertex="1" parent="ZxmdzEVxeu-JPoR6dsE8-22">
                    <mxGeometry x="184.6153846153846" y="75.42857142857143" width="61.53846153846154" height="68.57142857142857" as="geometry"/>
                </mxCell>
                <mxCell id="ZxmdzEVxeu-JPoR6dsE8-8" value="timer_controller_2" style="rounded=1;whiteSpace=wrap;html=1;" vertex="1" parent="ZxmdzEVxeu-JPoR6dsE8-22">
                    <mxGeometry x="292.3076923076923" y="61.714285714285715" width="92.3076923076923" height="41.142857142857146" as="geometry"/>
                </mxCell>
                <mxCell id="ZxmdzEVxeu-JPoR6dsE8-9" value="timer_controller_1" style="rounded=1;whiteSpace=wrap;html=1;" vertex="1" parent="ZxmdzEVxeu-JPoR6dsE8-22">
                    <mxGeometry x="292.3076923076923" y="13.714285714285715" width="92.3076923076923" height="41.142857142857146" as="geometry"/>
                </mxCell>
                <mxCell id="ZxmdzEVxeu-JPoR6dsE8-10" value="timer_controller_k" style="rounded=1;whiteSpace=wrap;html=1;" vertex="1" parent="ZxmdzEVxeu-JPoR6dsE8-22">
                    <mxGeometry x="292.3076923076923" y="111.08571428571429" width="92.3076923076923" height="41.142857142857146" as="geometry"/>
                </mxCell>
                <mxCell id="ZxmdzEVxeu-JPoR6dsE8-11" value="timer_controller_k" style="rounded=1;whiteSpace=wrap;html=1;" vertex="1" parent="ZxmdzEVxeu-JPoR6dsE8-22">
                    <mxGeometry x="292.3076923076923" y="163.2" width="92.3076923076923" height="41.142857142857146" as="geometry"/>
                </mxCell>
                <mxCell id="ZxmdzEVxeu-JPoR6dsE8-12" value="" style="endArrow=classic;startArrow=classic;html=1;exitX=1.016;exitY=0.606;exitDx=0;exitDy=0;exitPerimeter=0;entryX=0.001;entryY=0.571;entryDx=0;entryDy=0;entryPerimeter=0;" edge="1" parent="ZxmdzEVxeu-JPoR6dsE8-22" source="ZxmdzEVxeu-JPoR6dsE8-7" target="ZxmdzEVxeu-JPoR6dsE8-10">
                    <mxGeometry width="50" height="50" relative="1" as="geometry">
                        <mxPoint x="261.53846153846155" y="157.71428571428572" as="sourcePoint"/>
                        <mxPoint x="300" y="123.42857142857143" as="targetPoint"/>
                    </mxGeometry>
                </mxCell>
                <mxCell id="ZxmdzEVxeu-JPoR6dsE8-13" value="" style="endArrow=classic;startArrow=classic;html=1;exitX=1;exitY=0;exitDx=0;exitDy=67.5;exitPerimeter=0;entryX=0;entryY=0.5;entryDx=0;entryDy=0;" edge="1" parent="ZxmdzEVxeu-JPoR6dsE8-22" source="ZxmdzEVxeu-JPoR6dsE8-7" target="ZxmdzEVxeu-JPoR6dsE8-11">
                    <mxGeometry width="50" height="50" relative="1" as="geometry">
                        <mxPoint x="261.53846153846155" y="157.71428571428572" as="sourcePoint"/>
                        <mxPoint x="300" y="123.42857142857143" as="targetPoint"/>
                    </mxGeometry>
                </mxCell>
                <mxCell id="ZxmdzEVxeu-JPoR6dsE8-17" value="" style="endArrow=classic;startArrow=classic;html=1;entryX=0;entryY=0.5;entryDx=0;entryDy=0;exitX=1;exitY=0.5;exitDx=0;exitDy=0;entryPerimeter=0;" edge="1" parent="ZxmdzEVxeu-JPoR6dsE8-22" source="ZxmdzEVxeu-JPoR6dsE8-5" target="ZxmdzEVxeu-JPoR6dsE8-7">
                    <mxGeometry width="50" height="50" relative="1" as="geometry">
                        <mxPoint x="164.6153846153846" y="128.9142857142857" as="sourcePoint"/>
                        <mxPoint x="210.76923076923077" y="204.34285714285716" as="targetPoint"/>
                    </mxGeometry>
                </mxCell>
                <mxCell id="ZxmdzEVxeu-JPoR6dsE8-18" value="" style="endArrow=classic;startArrow=classic;html=1;entryX=-0.012;entryY=0.463;entryDx=0;entryDy=0;exitX=1;exitY=0.5;exitDx=0;exitDy=0;entryPerimeter=0;" edge="1" parent="ZxmdzEVxeu-JPoR6dsE8-22" source="ZxmdzEVxeu-JPoR6dsE8-4" target="ZxmdzEVxeu-JPoR6dsE8-7">
                    <mxGeometry width="50" height="50" relative="1" as="geometry">
                        <mxPoint x="130.76923076923077" y="192" as="sourcePoint"/>
                        <mxPoint x="192.30769230769232" y="128.57142857142858" as="targetPoint"/>
                    </mxGeometry>
                </mxCell>
                <mxCell id="ZxmdzEVxeu-JPoR6dsE8-6" style="edgeStyle=none;html=1;exitX=1;exitY=0.5;exitDx=0;exitDy=0;exitPerimeter=0;entryX=0;entryY=0.5;entryDx=0;entryDy=0;startArrow=classic;startFill=1;" edge="1" parent="ZxmdzEVxeu-JPoR6dsE8-22" source="ZxmdzEVxeu-JPoR6dsE8-7" target="ZxmdzEVxeu-JPoR6dsE8-8">
                    <mxGeometry relative="1" as="geometry"/>
                </mxCell>
                <mxCell id="ZxmdzEVxeu-JPoR6dsE8-19" value="" style="endArrow=classic;startArrow=classic;html=1;entryX=0;entryY=0.5;entryDx=0;entryDy=0;exitX=1;exitY=0.5;exitDx=0;exitDy=0;entryPerimeter=0;" edge="1" parent="ZxmdzEVxeu-JPoR6dsE8-22" source="ZxmdzEVxeu-JPoR6dsE8-3" target="ZxmdzEVxeu-JPoR6dsE8-7">
                    <mxGeometry width="50" height="50" relative="1" as="geometry">
                        <mxPoint x="130.76923076923077" y="192" as="sourcePoint"/>
                        <mxPoint x="192.30769230769232" y="128.57142857142858" as="targetPoint"/>
                    </mxGeometry>
                </mxCell>
                <mxCell id="ZxmdzEVxeu-JPoR6dsE8-20" value="" style="endArrow=classic;startArrow=classic;html=1;entryX=0;entryY=0.5;entryDx=0;entryDy=0;exitX=1;exitY=0.4;exitDx=0;exitDy=0;exitPerimeter=0;" edge="1" parent="ZxmdzEVxeu-JPoR6dsE8-22" source="ZxmdzEVxeu-JPoR6dsE8-7" target="ZxmdzEVxeu-JPoR6dsE8-9">
                    <mxGeometry width="50" height="50" relative="1" as="geometry">
                        <mxPoint x="138.46153846153848" y="198.85714285714286" as="sourcePoint"/>
                        <mxPoint x="200" y="135.42857142857142" as="targetPoint"/>
                    </mxGeometry>
                </mxCell>
                <mxCell id="ZxmdzEVxeu-JPoR6dsE8-21" value="Timer System Bounderies" style="text;html=1;strokeColor=none;fillColor=none;align=center;verticalAlign=middle;whiteSpace=wrap;rounded=0;dashed=1;" vertex="1" parent="ZxmdzEVxeu-JPoR6dsE8-22">
                    <mxGeometry x="157.6923076923077" y="219.42857142857144" width="115.38461538461539" height="20.571428571428573" as="geometry"/>
                </mxCell>
                <mxCell id="ZxmdzEVxeu-JPoR6dsE8-2" value="Cloud&lt;br&gt;HTTP&lt;br&gt;Load Balancer" style="rounded=1;whiteSpace=wrap;html=1;" vertex="1" parent="1">
                    <mxGeometry x="80" y="60" width="70" height="500" as="geometry"/>
                </mxCell>
                <mxCell id="ZxmdzEVxeu-JPoR6dsE8-14" value="" style="endArrow=classic;startArrow=none;html=1;entryX=0;entryY=0.5;entryDx=0;entryDy=0;exitX=1;exitY=0.5;exitDx=0;exitDy=0;startFill=0;" edge="1" parent="1" source="ZxmdzEVxeu-JPoR6dsE8-2" target="ZxmdzEVxeu-JPoR6dsE8-4">
                    <mxGeometry width="50" height="50" relative="1" as="geometry">
                        <mxPoint x="150" y="430" as="sourcePoint"/>
                        <mxPoint x="220.71067811865476" y="380" as="targetPoint"/>
                    </mxGeometry>
                </mxCell>
                <mxCell id="ZxmdzEVxeu-JPoR6dsE8-15" value="" style="endArrow=classic;startArrow=none;html=1;entryX=0;entryY=0.5;entryDx=0;entryDy=0;exitX=1;exitY=0.5;exitDx=0;exitDy=0;startFill=0;" edge="1" parent="1" source="ZxmdzEVxeu-JPoR6dsE8-2" target="ZxmdzEVxeu-JPoR6dsE8-3">
                    <mxGeometry width="50" height="50" relative="1" as="geometry">
                        <mxPoint x="160" y="390" as="sourcePoint"/>
                        <mxPoint x="220" y="280" as="targetPoint"/>
                    </mxGeometry>
                </mxCell>
                <mxCell id="ZxmdzEVxeu-JPoR6dsE8-16" value="" style="endArrow=classic;startArrow=none;html=1;entryX=0;entryY=0.5;entryDx=0;entryDy=0;exitX=1;exitY=0.5;exitDx=0;exitDy=0;startFill=0;" edge="1" parent="1" source="ZxmdzEVxeu-JPoR6dsE8-2" target="ZxmdzEVxeu-JPoR6dsE8-5">
                    <mxGeometry width="50" height="50" relative="1" as="geometry">
                        <mxPoint x="160" y="390" as="sourcePoint"/>
                        <mxPoint x="220" y="390" as="targetPoint"/>
                    </mxGeometry>
                </mxCell>
                <mxCell id="ZxmdzEVxeu-JPoR6dsE8-23" value="" style="group" vertex="1" connectable="0" parent="1">
                    <mxGeometry x="210" y="320" width="400" height="240" as="geometry"/>
                </mxCell>
                <mxCell id="ZxmdzEVxeu-JPoR6dsE8-24" value="" style="rounded=0;whiteSpace=wrap;html=1;dashed=1;strokeColor=#FF9933;align=right;" vertex="1" parent="ZxmdzEVxeu-JPoR6dsE8-23">
                    <mxGeometry width="400" height="240" as="geometry"/>
                </mxCell>
                <mxCell id="ZxmdzEVxeu-JPoR6dsE8-25" value="timer_api_5" style="rounded=1;whiteSpace=wrap;html=1;" vertex="1" parent="ZxmdzEVxeu-JPoR6dsE8-23">
                    <mxGeometry x="30.76923076923077" y="89.14285714285714" width="92.3076923076923" height="41.142857142857146" as="geometry"/>
                </mxCell>
                <mxCell id="ZxmdzEVxeu-JPoR6dsE8-26" value="timer_api_4" style="rounded=1;whiteSpace=wrap;html=1;" vertex="1" parent="ZxmdzEVxeu-JPoR6dsE8-23">
                    <mxGeometry x="30.76923076923077" y="13.714285714285715" width="92.3076923076923" height="41.142857142857146" as="geometry"/>
                </mxCell>
                <mxCell id="ZxmdzEVxeu-JPoR6dsE8-27" value="timer_api_n" style="rounded=1;whiteSpace=wrap;html=1;" vertex="1" parent="ZxmdzEVxeu-JPoR6dsE8-23">
                    <mxGeometry x="30.76923076923077" y="164.57142857142858" width="92.3076923076923" height="41.142857142857146" as="geometry"/>
                </mxCell>
                <mxCell id="ZxmdzEVxeu-JPoR6dsE8-28" value="timer_db&lt;br&gt;(MySQL)" style="shape=cylinder3;whiteSpace=wrap;html=1;boundedLbl=1;backgroundOutline=1;size=15;" vertex="1" parent="ZxmdzEVxeu-JPoR6dsE8-23">
                    <mxGeometry x="184.6153846153846" y="75.42857142857143" width="61.53846153846154" height="68.57142857142857" as="geometry"/>
                </mxCell>
                <mxCell id="ZxmdzEVxeu-JPoR6dsE8-29" value="timer_controller_2" style="rounded=1;whiteSpace=wrap;html=1;" vertex="1" parent="ZxmdzEVxeu-JPoR6dsE8-23">
                    <mxGeometry x="292.3076923076923" y="61.714285714285715" width="92.3076923076923" height="41.142857142857146" as="geometry"/>
                </mxCell>
                <mxCell id="ZxmdzEVxeu-JPoR6dsE8-30" value="timer_controller_1" style="rounded=1;whiteSpace=wrap;html=1;" vertex="1" parent="ZxmdzEVxeu-JPoR6dsE8-23">
                    <mxGeometry x="292.3076923076923" y="13.714285714285715" width="92.3076923076923" height="41.142857142857146" as="geometry"/>
                </mxCell>
                <mxCell id="ZxmdzEVxeu-JPoR6dsE8-31" value="timer_controller_k" style="rounded=1;whiteSpace=wrap;html=1;" vertex="1" parent="ZxmdzEVxeu-JPoR6dsE8-23">
                    <mxGeometry x="292.3076923076923" y="111.08571428571429" width="92.3076923076923" height="41.142857142857146" as="geometry"/>
                </mxCell>
                <mxCell id="ZxmdzEVxeu-JPoR6dsE8-32" value="timer_controller_k" style="rounded=1;whiteSpace=wrap;html=1;" vertex="1" parent="ZxmdzEVxeu-JPoR6dsE8-23">
                    <mxGeometry x="292.3076923076923" y="163.2" width="92.3076923076923" height="41.142857142857146" as="geometry"/>
                </mxCell>
                <mxCell id="ZxmdzEVxeu-JPoR6dsE8-33" value="" style="endArrow=classic;startArrow=classic;html=1;exitX=1.016;exitY=0.606;exitDx=0;exitDy=0;exitPerimeter=0;entryX=0.001;entryY=0.571;entryDx=0;entryDy=0;entryPerimeter=0;" edge="1" parent="ZxmdzEVxeu-JPoR6dsE8-23" source="ZxmdzEVxeu-JPoR6dsE8-28" target="ZxmdzEVxeu-JPoR6dsE8-31">
                    <mxGeometry width="50" height="50" relative="1" as="geometry">
                        <mxPoint x="261.53846153846155" y="157.71428571428572" as="sourcePoint"/>
                        <mxPoint x="300" y="123.42857142857143" as="targetPoint"/>
                    </mxGeometry>
                </mxCell>
                <mxCell id="ZxmdzEVxeu-JPoR6dsE8-34" value="" style="endArrow=classic;startArrow=classic;html=1;exitX=1;exitY=0;exitDx=0;exitDy=67.5;exitPerimeter=0;entryX=0;entryY=0.5;entryDx=0;entryDy=0;" edge="1" parent="ZxmdzEVxeu-JPoR6dsE8-23" source="ZxmdzEVxeu-JPoR6dsE8-28" target="ZxmdzEVxeu-JPoR6dsE8-32">
                    <mxGeometry width="50" height="50" relative="1" as="geometry">
                        <mxPoint x="261.53846153846155" y="157.71428571428572" as="sourcePoint"/>
                        <mxPoint x="300" y="123.42857142857143" as="targetPoint"/>
                    </mxGeometry>
                </mxCell>
                <mxCell id="ZxmdzEVxeu-JPoR6dsE8-35" value="" style="endArrow=classic;startArrow=classic;html=1;entryX=0;entryY=0.5;entryDx=0;entryDy=0;exitX=1;exitY=0.5;exitDx=0;exitDy=0;entryPerimeter=0;" edge="1" parent="ZxmdzEVxeu-JPoR6dsE8-23" source="ZxmdzEVxeu-JPoR6dsE8-27" target="ZxmdzEVxeu-JPoR6dsE8-28">
                    <mxGeometry width="50" height="50" relative="1" as="geometry">
                        <mxPoint x="164.6153846153846" y="128.9142857142857" as="sourcePoint"/>
                        <mxPoint x="210.76923076923077" y="204.34285714285716" as="targetPoint"/>
                    </mxGeometry>
                </mxCell>
                <mxCell id="ZxmdzEVxeu-JPoR6dsE8-36" value="" style="endArrow=classic;startArrow=classic;html=1;entryX=-0.012;entryY=0.463;entryDx=0;entryDy=0;exitX=1;exitY=0.5;exitDx=0;exitDy=0;entryPerimeter=0;" edge="1" parent="ZxmdzEVxeu-JPoR6dsE8-23" source="ZxmdzEVxeu-JPoR6dsE8-26" target="ZxmdzEVxeu-JPoR6dsE8-28">
                    <mxGeometry width="50" height="50" relative="1" as="geometry">
                        <mxPoint x="130.76923076923077" y="192" as="sourcePoint"/>
                        <mxPoint x="192.30769230769232" y="128.57142857142858" as="targetPoint"/>
                    </mxGeometry>
                </mxCell>
                <mxCell id="ZxmdzEVxeu-JPoR6dsE8-37" style="edgeStyle=none;html=1;exitX=1;exitY=0.5;exitDx=0;exitDy=0;exitPerimeter=0;entryX=0;entryY=0.5;entryDx=0;entryDy=0;startArrow=classic;startFill=1;" edge="1" parent="ZxmdzEVxeu-JPoR6dsE8-23" source="ZxmdzEVxeu-JPoR6dsE8-28" target="ZxmdzEVxeu-JPoR6dsE8-29">
                    <mxGeometry relative="1" as="geometry"/>
                </mxCell>
                <mxCell id="ZxmdzEVxeu-JPoR6dsE8-38" value="" style="endArrow=classic;startArrow=classic;html=1;entryX=0;entryY=0.5;entryDx=0;entryDy=0;exitX=1;exitY=0.5;exitDx=0;exitDy=0;entryPerimeter=0;" edge="1" parent="ZxmdzEVxeu-JPoR6dsE8-23" source="ZxmdzEVxeu-JPoR6dsE8-25" target="ZxmdzEVxeu-JPoR6dsE8-28">
                    <mxGeometry width="50" height="50" relative="1" as="geometry">
                        <mxPoint x="130.76923076923077" y="192" as="sourcePoint"/>
                        <mxPoint x="192.30769230769232" y="128.57142857142858" as="targetPoint"/>
                    </mxGeometry>
                </mxCell>
                <mxCell id="ZxmdzEVxeu-JPoR6dsE8-39" value="" style="endArrow=classic;startArrow=classic;html=1;entryX=0;entryY=0.5;entryDx=0;entryDy=0;exitX=1;exitY=0.4;exitDx=0;exitDy=0;exitPerimeter=0;" edge="1" parent="ZxmdzEVxeu-JPoR6dsE8-23" source="ZxmdzEVxeu-JPoR6dsE8-28" target="ZxmdzEVxeu-JPoR6dsE8-30">
                    <mxGeometry width="50" height="50" relative="1" as="geometry">
                        <mxPoint x="138.46153846153848" y="198.85714285714286" as="sourcePoint"/>
                        <mxPoint x="200" y="135.42857142857142" as="targetPoint"/>
                    </mxGeometry>
                </mxCell>
                <mxCell id="ZxmdzEVxeu-JPoR6dsE8-40" value="Timer System Bounderies" style="text;html=1;strokeColor=none;fillColor=none;align=center;verticalAlign=middle;whiteSpace=wrap;rounded=0;dashed=1;" vertex="1" parent="ZxmdzEVxeu-JPoR6dsE8-23">
                    <mxGeometry x="157.6923076923077" y="219.42857142857144" width="115.38461538461539" height="20.571428571428573" as="geometry"/>
                </mxCell>
                <mxCell id="ZxmdzEVxeu-JPoR6dsE8-41" value="" style="endArrow=classic;startArrow=none;html=1;entryX=0;entryY=0.5;entryDx=0;entryDy=0;startFill=0;" edge="1" parent="1" target="ZxmdzEVxeu-JPoR6dsE8-27">
                    <mxGeometry width="50" height="50" relative="1" as="geometry">
                        <mxPoint x="150" y="310" as="sourcePoint"/>
                        <mxPoint x="240.76923076923072" y="104.28571428571433" as="targetPoint"/>
                    </mxGeometry>
                </mxCell>
                <mxCell id="ZxmdzEVxeu-JPoR6dsE8-42" value="" style="endArrow=classic;startArrow=none;html=1;entryX=0;entryY=0.5;entryDx=0;entryDy=0;exitX=1;exitY=0.5;exitDx=0;exitDy=0;startFill=0;" edge="1" parent="1" source="ZxmdzEVxeu-JPoR6dsE8-2" target="ZxmdzEVxeu-JPoR6dsE8-25">
                    <mxGeometry width="50" height="50" relative="1" as="geometry">
                        <mxPoint x="160" y="320" as="sourcePoint"/>
                        <mxPoint x="240.76923076923072" y="179.71428571428567" as="targetPoint"/>
                    </mxGeometry>
                </mxCell>
                <mxCell id="ZxmdzEVxeu-JPoR6dsE8-43" value="" style="endArrow=classic;startArrow=none;html=1;entryX=0;entryY=0.5;entryDx=0;entryDy=0;exitX=1;exitY=0.5;exitDx=0;exitDy=0;startFill=0;" edge="1" parent="1" source="ZxmdzEVxeu-JPoR6dsE8-2" target="ZxmdzEVxeu-JPoR6dsE8-26">
                    <mxGeometry width="50" height="50" relative="1" as="geometry">
                        <mxPoint x="160" y="320" as="sourcePoint"/>
                        <mxPoint x="240.76923076923072" y="255.1428571428571" as="targetPoint"/>
                    </mxGeometry>
                </mxCell>
            </root>
        </mxGraphModel>
    </diagram>
</mxfile>